<svg xmlns="http://www.w3.org/2000/svg" viewBox="0 0 140 140"><path d="M81.65,96.52A27.9,27.9,0,0,1,78,101.08L53.39,125.65a27.6,27.6,0,0,1-39-39L38.93,62.05c.59-.59,1.18-1.1,1.73-1.57.27-.23.53-.44.8-.65l.57-.42.19-.13A27.31,27.31,0,0,1,56,54.09c.88-.08,1.69-.12,2.48-.12A27.38,27.38,0,0,1,78,62.05c.42.41.81.84,1.19,1.27l.3.34c.32.39.64.77.94,1.16l.17.22c.34.46.68.94,1,1.44l.09.13c.34.53.61,1,.87,1.46l.11.19a25.85,25.85,0,0,1,1.56,3.33l0,.12A27.64,27.64,0,0,1,86,81.44a23,23,0,0,0,6.2-2.14,33.92,33.92,0,0,0-2.36-10.37l-.12-.31c-.13-.32-.27-.64-.42-1l-.24-.51q-.22-.49-.48-1l-.25-.48c-.18-.34-.36-.67-.55-1l-.27-.46c-.19-.33-.39-.64-.6-1l-.29-.46L86,61.88l-.32-.45L85,60.54l-.35-.43c-.25-.31-.51-.61-.77-.9l-.33-.38c-.37-.42-.76-.82-1.16-1.22s-.82-.8-1.24-1.18l-.24-.21-.39-.34-.65-.55L79.49,55l-.42-.32c-.17-.14-.33-.27-.5-.39L78,53.93l-.36-.26-.45-.31-.6-.38-.78-.49L75,52l-.58-.32-1-.5L73,51c-.34-.17-.69-.32-1-.47l-.42-.18c-.36-.16-.73-.3-1.11-.44l-.36-.14-1.18-.4-.3-.1q-.63-.2-1.26-.36l-.25-.07-1.33-.32-.16,0c-.48-.11-1-.2-1.42-.28l.22-2.08-.34,2.06c-.48-.08-1-.15-1.45-.21s-1.08-.12-1.58-.15l-1.58-.09h-1a33.79,33.79,0,0,0-17.52,4.86l-.25.16c-.43.27-.87.55-1.3.84l-.42.3c-.37.26-.74.53-1.1.81l-.48.37-1,.87-.43.37c-.47.42-.94.86-1.4,1.32L9.92,82.18a33.88,33.88,0,0,0,47.91,47.91L82.4,105.52a33.58,33.58,0,0,0,6.83-9.78A38.53,38.53,0,0,1,81.65,96.52Z"/><path d="M99.17,87.4l.13-.08c.48-.3,1-.6,1.41-.92l.33-.23c.44-.32.81-.59,1.17-.87l.46-.36c.36-.28.7-.58,1-.87l.42-.36c.47-.42.93-.85,1.38-1.3l24.57-24.57a33.9,33.9,0,0,0,0-47.92h0a33.88,33.88,0,0,0-47.91,0L57.6,34.5a33.38,33.38,0,0,0-6.84,9.8,38.46,38.46,0,0,1,7.58-.78A27.59,27.59,0,0,1,62,38.94L86.61,14.36a27.6,27.6,0,0,1,39,39L101.07,78c-.39.39-.79.76-1.2,1.13l-.32.27q-.49.43-1,.84l-.25.2a28,28,0,0,1-2.83,1.9A27.22,27.22,0,0,1,84,85.94c-.86.08-1.67.12-2.48.12A27.42,27.42,0,0,1,62,78c-.38-.38-.75-.77-1.1-1.17l-.3-.35c-.26-.3-.51-.6-.76-.91l-.28-.37q-.42-.54-.81-1.11l-.13-.18c-.3-.45-.6-.93-.89-1.4s-.54-1-.78-1.44l-.11-.21c-.23-.45-.45-.91-.65-1.38l0-.12A28,28,0,0,1,55,66.14,27.48,27.48,0,0,1,54,58.6a23.2,23.2,0,0,0-6.2,2.16,33.68,33.68,0,0,0,3.09,12l.2.44c.08.15.15.29.22.44l.4.77c.11.2.22.41.34.61s.27.48.41.72.25.4.37.61l.45.69.06.08.34.51c.15.23.32.46.48.68l.1.13c.1.15.21.29.32.44l.49.62.19.24.28.35.66.76.36.41c.35.38.71.76,1.08,1.13s.79.77,1.2,1.15l.62.54.63.53c.12.11.25.21.38.31l.45.35.45.35.53.38.4.28.38.27c.23.16.46.3.69.45l.67.42.92.53.46.26c.34.19.67.36,1,.53l.4.2c.36.18.73.34,1.09.5l.34.15c.4.17.79.33,1.19.48l.29.11c.41.16.83.3,1.25.44l.25.08q.64.21,1.32.39l.1,0c.54.15,1,.26,1.47.37l.16,0c.46.1,1,.2,1.44.28s1.1.18,1.61.24,1,.12,1.56.16h.08c.54,0,1.07.07,1.61.09h.28A32.73,32.73,0,0,0,92,90.68c.62-.2,1.23-.42,1.84-.65A34.53,34.53,0,0,0,99.17,87.4Z"/></svg>