<?xml version="1.0" encoding="utf-8"?>
<!-- Generator: Adobe Illustrator 21.0.0, SVG Export Plug-In . SVG Version: 6.00 Build 0)  -->
<svg version="1.1" id="圖層_1" xmlns="http://www.w3.org/2000/svg" xmlns:xlink="http://www.w3.org/1999/xlink" x="0px" y="0px"
	 viewBox="0 0 140 140" style="enable-background:new 0 0 140 140;" xml:space="preserve">
<style type="text/css">
	.st0{fill:#FFFFFF;}
</style>
<path class="st0" d="M32.9,140c-4.2,0-7.5-3.4-7.5-7.6v-10.7c-29-24.5-32.6-67.9-8-96.9s67.9-32.6,96.9-8s32.6,67.9,8,96.9
	c-17.6,20.8-45.9,29.2-72.1,21.5c-0.2,0.1-0.4,0.1-0.6,0.2l-14.6,4.3C34.4,139.9,33.7,140,32.9,140z M70,6C35.2,6,7,34.1,6.9,68.9
	C6.9,88,15.5,106,30.3,118l1.1,0.9l0,13.5c0,0.5,0.2,1,0.6,1.3c0.4,0.3,0.9,0.4,1.4,0.2l14.6-4.3c0.2,0,0.3-0.1,0.4-0.2l1.2-0.8
	l1.3,0.4c33.2,10.4,68.6-8.1,79-41.2s-8.1-68.6-41.2-79C82.6,7,76.3,6,70,6z"/>
<path class="st0" d="M33,82.5l22.5-30.1c0.6-0.8,1.6-0.9,2.4-0.4l25.3,18.7c0.7,0.5,1.6,0.4,2.2-0.1l15.1-13.2
	c0.7-0.6,1.8-0.6,2.4,0.1c0.5,0.6,0.6,1.4,0.2,2L86.2,90.2c-0.5,0.8-1.5,1.1-2.4,0.7c-0.1,0-0.1-0.1-0.2-0.1L59.7,72.5
	c-0.6-0.4-1.3-0.5-1.9-0.1L35.2,85c-0.9,0.4-1.9,0-2.3-0.8C32.6,83.6,32.7,83,33,82.5z"/>
</svg>
