<?xml version="1.0" encoding="utf-8"?>
<!-- Generator: Adobe Illustrator 21.0.0, SVG Export Plug-In . SVG Version: 6.00 Build 0)  -->
<svg version="1.1" id="圖層_1" xmlns="http://www.w3.org/2000/svg" xmlns:xlink="http://www.w3.org/1999/xlink" x="0px" y="0px"
	 viewBox="0 0 140 140" style="enable-background:new 0 0 140 140;" xml:space="preserve">
<style type="text/css">
	.st0{fill:#FFFFFF;}
	.st1{fill:#231815;}
</style>
<g>
	<rect x="14.4" y="38.3" class="st0" width="111.3" height="5"/>
	<path class="st0" d="M14.4,42.3v1.1c0,25.3,9.9,68.9,55.1,96.3l0.6,0.3l0.6-0.3c45.2-27.4,55.1-71,55.1-96.3v-1.1H14.4z"/>
	<rect x="14" class="st0" width="112" height="39.6"/>
	<path class="st1" d="M46,20.7h-0.3c-0.5,1.8-1.4,2-2.2,2c-0.5,0-0.7-0.1-0.7-0.6v-2.8c0.8,0,1.3,0.4,1.4,1.8h0.2v-3.9h-0.2
		C44,18.7,43.6,19,42.8,19v-2.7c0-0.5,0.2-0.5,0.6-0.5c1.1,0,1.7,0.3,1.9,1.9h0.2v-2.3h-4.8v0.3c0.4,0,0.8,0.1,0.8,0.8V22
		c0,0.7-0.3,0.8-0.8,0.8v0.3h4.9L46,20.7z M93.7,54c0.2,1.4,1.3,3.5,2.6,4.2c0.8,0.5,3.5,0.5,2.9,2.1c-0.4,0.7-0.8,2.2-1.6,1.5
		s-2-2.4-2.5-2.5s-0.4,0.7-0.2,0.9s1.1,1.6,1.6,2.2c0.6,0.6,0.7,1.6,0.1,2.2c-0.1,0.1-0.2,0.2-0.3,0.3c-1.1,0.5-2.2-0.2-2.1-0.7
		c0-0.9-0.5-3.4-0.9-3.4s-0.4,0.7-0.3,1.4c-0.2,1.5,0.8,2.7,0.7,3.4s-0.3,1.6-1.6,1.5s-1.4-0.8-1.6-1.5s0.8-1.9,0.7-3.4
		c0-0.7,0-1.4-0.3-1.4s-1,2.5-0.9,3.4c0,0.6-1.1,1.2-2.1,0.7c-0.8-0.5-1-1.4-0.5-2.2c0.1-0.1,0.2-0.2,0.3-0.3
		c0.5-0.6,1.3-1.8,1.6-2.2s0.3-1-0.2-0.9s-1.7,1.9-2.5,2.6s-1.2-0.8-1.6-1.5c-0.5-1.6,2.1-1.7,3-2.1c1.3-0.7,2.3-2.8,2.6-4.2
		c0.3-1.8,0.7-2.6,1.7-2.6S93.4,52.2,93.7,54 M95.4,53.6c0.9,0.1,1.6,0.2,0.8,1.4s-1,1-1.1,0.2S94.5,53.5,95.4,53.6 M108,60.4
		c-0.7-7.4,4.1-8.3,7.9-8c-0.8-8.1,8-9.3,8.1-7.3c1.5,18.3-8.5,46.3-18.7,59.2c-5.5-0.5-6.1-4.5-5.7-7.9c-6.1,0.7-8.5-3.8-7.7-8
		c-2.3,0.8-7.3-0.4-7.9-4.9s2.9-7.2,8-7.2c-0.6-6.3,3.3-8.2,7.9-7.8C99.3,62.2,102.5,60.2,108,60.4 M95.3,98.9
		c0.9,0.1,1.6,0.3,0.8,1.4s-1,1-1.1,0.3S94.5,98.8,95.3,98.9 M88.7,98.8c0.8-0.1,0.4,0.8,0.3,1.6s-0.3,0.9-1.1-0.3
		S87.8,98.9,88.7,98.8 M99.2,105.6c-0.4,0.7-0.8,2.2-1.6,1.6s-2-2.4-2.5-2.5s-0.4,0.7-0.2,0.9s1.1,1.6,1.6,2.2
		c0.6,0.6,0.7,1.6,0.1,2.3c-0.1,0.1-0.2,0.2-0.3,0.3c-1.1,0.5-2.2-0.2-2.1-0.7c0-0.9-0.5-3.4-0.9-3.4s-0.4,0.7-0.3,1.4
		c-0.2,1.5,0.8,2.7,0.7,3.4s-0.3,1.6-1.6,1.5s-1.4-0.8-1.6-1.5s0.8-1.9,0.7-3.4c0-0.7,0-1.4-0.3-1.4s-1,2.5-0.9,3.4
		c0,0.6-1.1,1.3-2.1,0.7c-0.8-0.5-1-1.4-0.5-2.2c0.1-0.1,0.2-0.2,0.3-0.3c0.5-0.6,1.3-1.8,1.6-2.2s0.3-1-0.2-0.9s-1.7,1.8-2.5,2.5
		s-1.2-0.8-1.6-1.6c-0.5-1.6,2.1-1.7,3-2.1c1.3-0.7,2.3-2.8,2.6-4.2c0.3-1.8,0.7-2.6,1.7-2.7s1.3,0.8,1.6,2.7
		c0.2,1.4,1.3,3.5,2.6,4.2C97.1,104,99.8,104,99.2,105.6 M92.8,120.1c-5.6,6.3-16.2,15.1-22.7,17.9c-6.6-2.9-17.1-11.6-22.7-17.9
		c-1.3-5.2,2.8-9.1,8.4-7.2c-1.3-7.3,4.1-9.4,8.3-8.2c-0.5-4.7,2.3-7.9,6.1-7.9s6.6,3.2,6.1,7.9c4.1-1.2,9.6,0.8,8.3,8.2
		C90,110.9,94.1,114.9,92.8,120.1 M47.4,107.5c0-0.7,0-1.4-0.3-1.4s-1,2.5-0.9,3.4c0,0.6-1.1,1.3-2.1,0.7c-0.8-0.5-1-1.4-0.5-2.2
		c0.1-0.1,0.2-0.2,0.3-0.3c0.5-0.6,1.3-1.8,1.6-2.2s0.3-1-0.2-0.9s-1.7,1.8-2.5,2.5s-1.2-0.8-1.6-1.6c-0.5-1.6,2.1-1.7,3-2.1
		c1.3-0.7,2.3-2.8,2.6-4.2c0.3-1.8,0.7-2.6,1.6-2.7s1.3,0.8,1.6,2.7c0.3,1.4,1.3,3.5,2.6,4.2c0.8,0.5,3.5,0.5,2.9,2.1
		c-0.4,0.7-0.8,2.2-1.6,1.6s-2-2.4-2.5-2.5s-0.4,0.7-0.2,0.9s1.1,1.6,1.6,2.2c0.6,0.6,0.7,1.6,0.1,2.3c-0.1,0.1-0.2,0.2-0.3,0.3
		c-1.1,0.5-2.2-0.2-2.1-0.7c0-0.9-0.5-3.4-0.9-3.4s-0.4,0.7-0.3,1.4c-0.2,1.5,0.8,2.7,0.7,3.4s-0.3,1.6-1.5,1.5s-1.4-0.8-1.5-1.5
		S47.6,109,47.4,107.5 M45.3,100.4c-0.1,0.8-0.3,0.9-1.1-0.3s-0.1-1.3,0.8-1.4S45.4,99.6,45.3,100.4 M52.3,100.2
		c-0.8,1.1-1,1-1.1,0.3s-0.5-1.7,0.3-1.6S53.1,99.1,52.3,100.2 M34.9,104.2C26.1,93.2,14.8,62,16.2,45c0.2-2,9-0.8,8.1,7.3
		c3.8-0.2,8.6,0.6,7.9,8c5.5-0.3,8.6,1.8,8,8.1c4.6-0.4,8.5,1.5,7.9,7.8c5.1,0,8.6,2.7,8,7.2s-5.6,5.7-7.9,4.9
		c0.8,4.3-1.6,8.8-7.7,8C40.9,99.7,40.3,103.7,34.9,104.2 M43,58.2c1.3-0.7,2.3-2.8,2.6-4.2c0.3-1.8,0.7-2.6,1.6-2.6
		s1.3,0.8,1.6,2.6c0.3,1.4,1.3,3.5,2.6,4.2c0.8,0.5,3.5,0.5,3,2.1c-0.4,0.7-0.8,2.2-1.6,1.5s-2-2.4-2.5-2.5S50,60,50.2,60.3
		s1.1,1.6,1.6,2.2c0.6,0.6,0.7,1.6,0.1,2.2c-0.1,0.1-0.2,0.2-0.3,0.3c-1.1,0.5-2.2-0.2-2.1-0.7c0-0.9-0.5-3.4-1-3.4
		s-0.4,0.7-0.3,1.4c-0.2,1.5,0.8,2.7,0.7,3.4s-0.3,1.6-1.5,1.5s-1.4-0.8-1.5-1.5s0.8-1.9,0.7-3.4c0-0.7,0-1.4-0.3-1.4s-1,2.5-1,3.4
		c0,0.6-1.1,1.2-2.1,0.7c-0.8-0.5-1-1.4-0.5-2.2c0.1-0.1,0.2-0.2,0.3-0.3c0.5-0.6,1.3-1.8,1.6-2.2s0.3-1-0.2-0.9s-1.6,1.9-2.3,2.6
		s-1.2-0.8-1.6-1.5c-0.5-1.6,2.1-1.7,3-2.1 M44,53.6c0.8-0.1,0.4,0.8,0.3,1.6s-0.3,0.9-1.1-0.3S43.1,53.7,44,53.6 M50.6,53.7
		c0.9,0.1,1.6,0.2,0.8,1.4s-1,1-1.1,0.2S49.8,53.6,50.6,53.7 M66,80.9c1.3-0.7,2.3-2.8,2.6-4.2c0.3-1.8,0.7-2.6,1.7-2.7
		s1.3,0.8,1.6,2.7c0.2,1.4,1.3,3.5,2.6,4.2c0.8,0.4,3.5,0.5,3,2.1c-0.4,0.7-0.8,2.2-1.6,1.6s-2-2.4-2.5-2.5s-0.4,0.7-0.2,0.9
		s1.1,1.6,1.6,2.2c0.6,0.6,0.7,1.6,0.1,2.2c-0.1,0.1-0.2,0.2-0.3,0.3c-1.1,0.5-2.2-0.1-2.1-0.7c0-0.9-0.5-3.4-0.9-3.4
		s-0.4,0.7-0.3,1.4c-0.2,1.5,0.8,2.7,0.7,3.4s-0.3,1.6-1.6,1.5s-1.4-0.8-1.6-1.5s0.8-2,0.7-3.4c0-0.7,0-1.4-0.3-1.4s-1,2.5-0.9,3.4
		c0,0.6-1.1,1.3-2.1,0.7c-0.8-0.5-1-1.4-0.5-2.2c0.1-0.1,0.2-0.2,0.3-0.3c0.5-0.6,1.3-1.8,1.6-2.2s0.3-1-0.2-0.9s-1.7,1.8-2.5,2.5
		c-0.7,0.7-1.2-0.8-1.6-1.6C62.5,81.4,65.2,81.3,66,80.9 M66.9,76.2c0.8-0.1,0.4,0.8,0.3,1.6s-0.3,0.9-1.1-0.2S66,76.3,66.9,76.2
		 M73.5,76.3c0.9,0.1,1.6,0.3,0.8,1.4s-1,1-1.1,0.2S72.7,76.2,73.5,76.3 M88.7,53.6c0.8-0.1,0.4,0.8,0.3,1.6s-0.3,0.9-1.1-0.3
		S87.8,53.7,88.7,53.6 M83.7,52.4c-0.1,5.6-1.5,7.9-8.4,8c0.6,6-2.4,7.9-5.7,7.9s-6.3-2-5.7-7.9c-6.9-0.1-8.3-2.4-8.4-8
		c-9-0.5-9.1-5.8-6.4-10.1H14.4v1.1c0,25.3,9.9,68.9,55.1,96.3l0.6,0.3l0.6-0.3c45.2-27.4,55.1-71,55.1-96.3v-1.1H90.2
		C92.9,46.5,92.8,51.9,83.7,52.4 M31.8,16.3l2.2,6.9h0.2l1.9-6.8c0.2-0.6,0.3-0.9,0.8-1v-0.3h-1.8v0.3c0.5,0,0.7,0.1,0.7,0.5
		c0,0.3-0.1,0.5-0.2,0.8l-1.1,3.9l-1.1-3.7c-0.1-0.3-0.2-0.7-0.3-1c0-0.4,0.2-0.4,0.7-0.5v-0.3h-2.8v0.3
		C31.5,15.5,31.6,15.6,31.8,16.3 M115.2,25.8c0,0.5-0.6,1-1.3,1.1v2.6c0,0.3-0.2,0.5-0.5,0.5h-11c0.2-0.2,0.3-0.5,0.3-0.8h9
		c0.5,0,0.9-0.3,0.9-0.8c0,0,0,0,0,0V10.9c0-0.2-0.1-0.3-0.2-0.5l0.9-0.2c0.3,0,0.5,0.2,0.5,0.5v3.3c0.7,0.1,1.3,0.6,1.3,1.1
		s-0.6,1-1.3,1.1v8.4C114.6,24.8,115.2,25.3,115.2,25.8 M102,27.5h8c0.1,0,0.2,0,0.3,0l1.5,1.2h-8.9C102.8,28.2,102.5,27.8,102,27.5
		 M101.6,30h-1c-0.6-0.3-0.8-1-0.5-1.5c0.2-0.4,0.6-0.7,1-0.7c0.6,0,1.2,0.5,1.2,1.1C102.3,29.4,102,29.8,101.6,30 M99.5,28.7H91
		h-0.1l1.5-1.3c0.1,0.1,0.2,0.1,0.4,0.1h7.5C99.8,27.8,99.5,28.2,99.5,28.7 M88.7,30c-0.3,0-0.5-0.2-0.5-0.5c0,0,0,0,0,0v-2.6
		c-0.8-0.1-1.3-0.5-1.3-1.1s0.6-1,1.3-1.1v-8.4c-0.8-0.1-1.3-0.6-1.3-1.1s0.6-1,1.3-1.1v-3.3c0-0.3,0.2-0.5,0.5-0.5c0,0,0,0,0,0
		l1.4,0.3c-0.1,0.1-0.1,0.2-0.1,0.4v17.5c0,0.5,0.4,0.8,0.9,0.8h8.5c0,0.3,0.2,0.5,0.3,0.8H88.7z M83.9,25.8c0,0.5-0.6,1-1.3,1.1
		v2.6c0,0.3-0.2,0.5-0.5,0.5h-11c0.2-0.2,0.3-0.5,0.3-0.7h9c0.5,0,0.9-0.3,0.9-0.8V10.9c0-0.2-0.1-0.4-0.2-0.5l1-0.2
		c0.3,0,0.5,0.2,0.5,0.5v3.3c0.7,0.1,1.3,0.6,1.3,1.1s-0.6,1-1.3,1.1v8.4C83.4,24.8,84,25.3,83.9,25.8 M70.8,27.5h7.9
		c0.1,0,0.2,0,0.3-0.1l1.5,1.2h-9C71.5,28.2,71.2,27.8,70.8,27.5 M70.4,30h-1c-0.6-0.3-0.8-1-0.5-1.5c0.3-0.6,1-0.8,1.5-0.5
		s0.8,1,0.5,1.5C70.8,29.7,70.6,29.9,70.4,30 M68.2,28.7h-8.5h-0.1l1.5-1.3c0.1,0.1,0.2,0.1,0.4,0.1H69
		C68.6,27.8,68.3,28.3,68.2,28.7 M57.5,30c-0.3,0-0.5-0.2-0.5-0.5c0,0,0,0,0,0v-2.6c-0.8-0.1-1.3-0.5-1.3-1.1s0.6-1,1.3-1.1v-8.4
		c-0.8-0.1-1.3-0.6-1.3-1.1s0.6-1,1.3-1.1v-3.3c0-0.3,0.2-0.5,0.5-0.5c0,0,0,0,0,0l1.5,0.3c-0.1,0.1-0.1,0.3-0.1,0.4v17.5
		c0,0.5,0.4,0.8,0.9,0.8h8.5c0.1,0.3,0.2,0.5,0.3,0.7H57.5z M52.7,25.8c0,0.5-0.5,1-1.3,1.1v2.6c0,0.3-0.2,0.5-0.5,0.5l0,0h-11
		c0.2-0.2,0.3-0.5,0.3-0.7h9c0.5,0,0.9-0.4,0.9-0.8V10.9c0-0.2-0.1-0.4-0.2-0.5l1-0.2c0.3,0,0.5,0.2,0.5,0.5v0v3.3
		c0.7,0.1,1.3,0.6,1.3,1.1s-0.5,1-1.3,1.1v8.4C52.2,24.8,52.7,25.3,52.7,25.8 M39.6,27.5h7.9c0.1,0,0.2,0,0.3-0.1l1.5,1.2h-9
		C40.2,28.2,39.9,27.8,39.6,27.5 M39.1,30h-1c-0.6-0.3-0.8-1-0.5-1.5c0.3-0.6,1-0.8,1.5-0.5s0.8,1,0.5,1.5
		C39.5,29.7,39.4,29.9,39.1,30 M37,28.7h-8.5c0,0-0.1,0-0.1,0l1.5-1.3c0.1,0.1,0.3,0.1,0.4,0.1h7.5C37.3,27.8,37,28.3,37,28.7
		 M26.2,30c-0.3,0-0.5-0.2-0.5-0.5v-2.6c-0.7-0.1-1.3-0.5-1.3-1.1s0.6-1,1.3-1.1v-8.4c-0.7-0.1-1.3-0.6-1.3-1.1s0.6-1,1.3-1.1v-3.3
		c0-0.3,0.2-0.5,0.5-0.5l1.5,0.3c-0.1,0.1-0.1,0.3-0.1,0.4v17.5c0,0.5,0.4,0.8,0.9,0.8H37c0,0.3,0.2,0.5,0.3,0.7H26.2z M28.1,10.9
		c0-0.2,0.2-0.3,0.4-0.3h1.1c0,0.1-0.1,0.1-0.1,0.2v16c0,0.1,0,0.1,0,0.2l-1.4,1.1V10.9z M30,10.9c0.1-0.1,0.2-0.1,0.3-0.2
		c0.1-0.1,0.3-0.1,0.4-0.1c0.5,0,1.2-0.1,2-0.1c1.3,0,2.6,0.2,3.9,0.6c1.2,0.4,2,1.5,1.9,2.8l0,0V27h-8.3c-0.1,0-0.2-0.1-0.2-0.2
		c0,0,0,0,0,0V10.9z M41.1,11.1c1.3-0.4,2.6-0.6,3.9-0.6c0.8,0,1.5,0,2,0c0.2,0,0.3,0.1,0.5,0.1c0.1,0,0.2,0.1,0.2,0.1l0,0v16
		c0,0.1-0.1,0.2-0.2,0.2l0,0h-8.4V13.9l0,0C39.1,12.6,39.9,11.5,41.1,11.1 M48.2,10.6h1c0.2,0,0.3,0.1,0.4,0.3v17.4l-1.4-1.2
		c0-0.1,0.1-0.2,0.1-0.3v-16C48.3,10.7,48.3,10.6,48.2,10.6 M59.4,10.9c0-0.2,0.2-0.3,0.4-0.3h1.1c0,0.1-0.1,0.1-0.1,0.2v16
		c0,0.1,0,0.2,0,0.2l-1.4,1.2L59.4,10.9z M61.3,10.8c0.1-0.1,0.2-0.1,0.3-0.2c0.1-0.1,0.3-0.1,0.4-0.1c0.5,0,1.2-0.1,2-0.1
		c1.3,0,2.6,0.2,3.9,0.6c1.2,0.4,2,1.5,1.9,2.8V27h-8.4c-0.1,0-0.2-0.1-0.2-0.2l0,0L61.3,10.8z M70.4,13.8c0-1.2,0.7-2.3,1.9-2.7
		c1.3-0.4,2.6-0.6,3.9-0.6c0.8,0,1.5,0,2,0c0.2,0,0.3,0.1,0.5,0.1c0.1,0,0.2,0.1,0.2,0.1l0,0v16c0,0.1-0.1,0.2-0.2,0.2c0,0,0,0,0,0
		h-8.3L70.4,13.8z M80.5,10.6c0.2,0,0.3,0.1,0.4,0.3v17.4l-1.4-1.2c0-0.1,0.1-0.2,0.1-0.3v-16c0-0.1,0-0.1-0.1-0.2L80.5,10.6
		 M90.6,10.9c0-0.2,0.2-0.3,0.4-0.3h1.1c0,0.1-0.1,0.1-0.1,0.2v16c0,0.1,0,0.2,0,0.2l-1.4,1.2L90.6,10.9z M92.5,10.8
		c0.2-0.1,0.5-0.2,0.7-0.3h0.3c1.7-0.1,3.4,0.2,5,0.7c1.5,0.4,2.5,1.7,2.5,3.2h0.5c0-1.5,1-2.8,2.5-3.2c1.6-0.5,3.3-0.7,5-0.7h0.4
		c0.2,0,0.3,0.1,0.5,0.1c0.1,0,0.1,0.1,0.2,0.1l0,0v16c0,0.1-0.1,0.2-0.2,0.2c0,0,0,0,0,0H92.7c-0.1,0-0.2-0.1-0.2-0.2c0,0,0,0,0,0
		L92.5,10.8z M110.7,10.6h1.1c0.2,0,0.3,0.1,0.4,0.3v17.5l-1.4-1.2c0.1-0.1,0.1-0.2,0.1-0.4v-16C110.8,10.7,110.8,10.6,110.7,10.6
		 M14,39.5h112V0H14V39.5z M95,15.4v6.1c0,1-0.2,1-0.8,1.1v0.3h3v-0.3c-0.6-0.1-0.8-0.1-0.8-1.1v-6.1c0.6,0,1.4,0.1,1.6,2h0.2v-2.3
		h-5.1v2.3h0.3C93.5,15.6,94.3,15.5,95,15.4 M64.7,16c0-0.4,0.1-0.5,0.5-0.5c0.7,0,1,0.5,1,1.7c0,1.5-0.4,1.8-1.5,1.8L64.7,16z
		 M65.5,22.7c-0.6-0.1-0.7-0.1-0.7-1.1v-2.3h0.2l1.8,3.6h1.7v-0.3c-0.1,0-0.3-0.1-0.3-0.2l-1.7-3.3c0.9-0.3,1.4-1.1,1.3-2
		c0-1.1-1-2-2.1-2c-0.1,0-0.2,0-0.3,0h-2.8v0.3c0.5,0,0.7,0.1,0.7,1.1v5.1c0,0.9-0.2,1-0.7,1.1V23h2.9L65.5,22.7z M100.7,17.4
		l0.8,2.8h-1.6L100.7,17.4z M100.1,22.6c-0.3,0-0.7,0-0.7-0.5c0.1-0.5,0.2-1,0.4-1.5h1.9c0.2,0.5,0.3,1,0.4,1.5
		c0,0.4-0.2,0.4-0.7,0.5v0.3h2.7v-0.3c-0.4,0-0.5-0.4-0.9-1.6l-1.9-6.1h-0.2l-1.9,6.4c-0.3,0.9-0.4,1.3-0.8,1.4v0.3h1.7V22.6z
		 M73.1,15.4c0.4,0,0.8,0.1,0.8,0.8v5.6c0,0.7-0.3,0.8-0.8,0.8V23H76v-0.3c-0.5,0-0.8-0.1-0.8-0.8v-5.6c0-0.8,0.4-0.8,0.8-0.8v-0.3
		h-3L73.1,15.4z M105.5,22.6c0.3,0,0.6,0.4,1.4,0.4c1.2,0,2.1-1.1,2.1-2.3c0,0,0-0.1,0-0.1c0-0.8-0.3-1.6-0.9-2.1l-1.2-0.8
		c-0.7-0.5-0.9-0.8-0.9-1.4s0.5-1.1,0.9-1.1c1,0,1.5,1.3,1.7,2.1h0.2v-2.5h-0.3c0,0.2-0.1,0.4-0.3,0.4s-0.7-0.4-1.3-0.4
		c-1.6,0-1.9,1.6-1.9,2.3c0,1,0.5,2,1.4,2.5l0.6,0.4c0.5,0.4,0.9,0.6,0.9,1.4c0,0.1,0,1.3-1,1.3s-1.6-1.3-1.7-2.5H105V23h0.3
		C105.3,22.8,105.4,22.6,105.5,22.6"/>
</g>
</svg>
