<?xml version="1.0" encoding="utf-8"?>
<!-- Generator: Adobe Illustrator 21.0.0, SVG Export Plug-In . SVG Version: 6.00 Build 0)  -->
<svg version="1.1" id="圖層_1" xmlns="http://www.w3.org/2000/svg" xmlns:xlink="http://www.w3.org/1999/xlink" x="0px" y="0px"
	 viewBox="0 0 140 140" style="enable-background:new 0 0 140 140;" xml:space="preserve">
<style type="text/css">
	.st0{fill:#FFFFFF;}
</style>
<path class="st0" d="M42.4,76.9H28.5c-2,0-3.7-1.7-3.7-3.7v-28c-0.1-2,1.5-3.8,3.5-3.9s3.8,1.5,3.9,3.5c0,0.1,0,0.3,0,0.4v24.3h10.3
	c2,0.1,3.6,1.8,3.5,3.9C45.8,75.3,44.3,76.8,42.4,76.9z"/>
<path class="st0" d="M70,2.8C31.4,2.8,0,28.7,0,60.5c0,28.4,24.6,52.3,58.5,56.9c2.9,0.6,3.8,1.5,3.9,1.7c0.2,0.5,0.4,1.7,0.1,4.7
	l-1,6c-0.2,1.4-0.7,4.6,1.6,6.4c0.9,0.7,2,1,3.2,1c1.7-0.1,3.3-0.5,4.8-1.2c7.8-3.3,39.5-23.4,53.9-40c10.1-11.1,15-22.7,15-35.5
	C140,28.7,108.6,2.8,70,2.8z M66.8,130.6l1-6.1c0.3-2.1,0.5-5.1-0.4-7.4c-1.2-3-4.9-4.3-7.9-5h-0.2c-31.3-4.2-54-25.9-54-51.6
	c0-28.8,29-52.3,64.6-52.3s64.6,23.5,64.6,52.3c0,11.4-4.5,21.8-13.6,31.9l0,0c-13.6,15.8-44.7,35.6-52,38.7
	c-0.8,0.3-1.6,0.6-2.4,0.7C66.7,131.4,66.7,131,66.8,130.6z"/>
<path class="st0" d="M56.8,75.2c0,2-1.6,3.7-3.7,3.7c-2,0-3.7-1.6-3.7-3.7l0,0v-28c0-2,1.6-3.7,3.7-3.7c2,0,3.7,1.6,3.7,3.7l0,0
	V75.2z"/>
<path class="st0" d="M90.2,75.2c0,1.6-1,3-2.5,3.5c-0.4,0.1-0.8,0.2-1.2,0.2c-1.2,0-2.3-0.5-3-1.5L69.3,57.9v17.3
	c0.1,2-1.4,3.8-3.5,3.9s-3.8-1.4-3.9-3.5c0-0.1,0-0.3,0-0.4v-28c0-1.6,1-3,2.5-3.5c0.4-0.1,0.7-0.2,1.1-0.2c1.1,0,2.2,0.6,2.9,1.5
	l14.4,19.5V47.2c-0.1-2,1.5-3.8,3.5-3.9s3.8,1.5,3.9,3.5c0,0.1,0,0.3,0,0.4C90.2,47.2,90.2,75.2,90.2,75.2z"/>
<path class="st0" d="M112.7,57.5c2,0,3.7,1.7,3.7,3.7s-1.7,3.7-3.7,3.7l0,0h-10.2v6.6h10.2c2,0.1,3.6,1.8,3.5,3.9
	c-0.1,1.9-1.6,3.4-3.5,3.5H98.8c-2,0-3.7-1.7-3.7-3.7v-28c0-2,1.6-3.7,3.7-3.7h13.9c2,0.1,3.6,1.8,3.5,3.9c-0.1,1.9-1.6,3.4-3.5,3.5
	h-10.3v6.6L112.7,57.5z"/>
</svg>
