<?xml version="1.0" encoding="utf-8"?>
<!-- Generator: Adobe Illustrator 21.0.0, SVG Export Plug-In . SVG Version: 6.00 Build 0)  -->
<svg version="1.1" id="圖層_1" xmlns="http://www.w3.org/2000/svg" xmlns:xlink="http://www.w3.org/1999/xlink" x="0px" y="0px"
	 viewBox="0 0 140 140" style="enable-background:new 0 0 140 140;" xml:space="preserve">
<style type="text/css">
	.st0{fill:#CD2300;}
</style>
<path class="st0" d="M130.7,30.8h-7.9c-4.4,0-8,3.6-8,8v46c0,2.8-2.3,5.1-5.1,5.2H34.8c-2.3,0-4.1,1.8-4.1,4.1l0,0V106
	c0,5.2,4.1,9.4,9.3,9.5c0,0,0,0,0,0h69.2c0.6,0,1.1,0.2,1.5,0.6l22.3,22.6c1.6,1.6,4.2,1.6,5.8,0c0.8-0.8,1.2-1.8,1.2-2.8V40.2
	C140,35.1,135.8,30.8,130.7,30.8z M134.3,40.2v90.4c0,0.3,0,0.7-0.1,1c-0.4-0.3-0.8-0.6-1.2-1L113.6,111c-0.8-0.8-1.8-1.2-2.9-1.2
	H40c-2,0-3.6-1.7-3.6-3.7c0,0,0-0.1,0-0.1v-9.1c0-1.2,0-1.2,1.2-1.2h74.9c4.5,0,8.1-3.6,8.1-8.1V41.5c0-4.2,1.2-5,3-5h7.1
	C132.7,36.6,134.3,38.2,134.3,40.2C134.3,40.2,134.3,40.2,134.3,40.2z"/>
<path class="st0" d="M93.5,0H9.3C4.2,0,0,4.3,0,9.4V98c0,1.8,1,3.4,2.7,4c0.5,0.2,1.1,0.3,1.7,0.3c1.1,0,2.2-0.5,3-1.3l22-22.3
	c0.5-0.5,1.1-0.7,1.7-0.7h62.5c5.2,0,9.4-4.3,9.3-9.4V9.4C102.9,4.3,98.7,0,93.5,0z M97.2,9.4v59.2c0,2-1.6,3.7-3.6,3.7c0,0,0,0,0,0
	H29.4c-1.2,0-2.3,0.5-3.1,1.3L6.9,93.3c-0.3,0.4-0.7,0.7-1.1,0.9c-0.1-0.5-0.1-0.9-0.1-1.4V9.4c0-2,1.6-3.7,3.6-3.7h84.2
	C95.6,5.8,97.2,7.4,97.2,9.4z"/>
<circle class="st0" cx="71.6" cy="39.8" r="2.7"/>
<circle class="st0" cx="51.1" cy="39.8" r="2.7"/>
<circle class="st0" cx="30.6" cy="39.8" r="2.7"/>
</svg>
