<svg xmlns="http://www.w3.org/2000/svg" viewBox="0 0 141.73 141.73"><defs><style>.a{fill:#161616;}</style></defs><path class="a" d="M97.19,54.7,83.83,68.06a2,2,0,0,1-2.89,0L67.77,54.89a2,2,0,0,0-2.88,0h0a2,2,0,0,0,0,2.88l16,16.06a2,2,0,0,0,2.89,0l16.24-16.24a2,2,0,0,0,0-2.89h0A2,2,0,0,0,97.19,54.7Z"/><rect class="a" x="48.48" y="35.56" width="68" height="4.08" rx="2.04" transform="translate(120.08 -44.88) rotate(90)"/><path d="M43.39,137.91c-5.51-2.1-10.08-5.13-12.12-11.11-2.2-6.47-.82-12.16,3.66-17,4.68-5.08,10.67-6.23,17.15-4.3s10,6.55,11.24,12.93c1.57,8.4-3.44,16.23-11.68,18.83a10.76,10.76,0,0,0-1.37.66Zm13.92-16.67a10,10,0,0,0-10.42-10.37,10.37,10.37,0,0,0-10.42,10.52A10.67,10.67,0,0,0,46.89,131.7,10.19,10.19,0,0,0,57.31,121.24Z"/><path d="M46.9,104.44a16.77,16.77,0,0,0-16.86,17,17.25,17.25,0,0,0,16.85,16.68,16.49,16.49,0,0,0,16.86-16.92C63.73,111.45,56.65,104.4,46.9,104.44Zm0,27.26a10.67,10.67,0,0,1-10.42-10.31,10.37,10.37,0,0,1,10.42-10.52,10,10,0,0,1,10.42,10.37A10.19,10.19,0,0,1,46.89,131.7Z"/><path d="M111.32,104.44a16.77,16.77,0,0,0-16.86,17,17.27,17.27,0,0,0,16.85,16.68,16.48,16.48,0,0,0,16.86-16.92C128.16,111.45,121.08,104.4,111.32,104.44Zm0,27.26a10.67,10.67,0,0,1-10.42-10.31,10.37,10.37,0,0,1,10.42-10.52,10,10,0,0,1,10.42,10.37A10.19,10.19,0,0,1,111.32,131.7Z"/><path d="M136.5,34.64c-.83,0-1.66,0-2.5,0H100.9a3.19,3.19,0,0,0-3.2,3.19h0a3.2,3.2,0,0,0,3.2,3.2h32.68c-.84,2.82-1.62,5.47-2.41,8.12Q126.12,66,121,82.9c-1.8,6-5.43,8.4-12,8.12-19.79-.84-39.58-.73-59.38,0-6.68.25-10.24-2.22-11.4-8.45C35.66,68.82,33.27,55,30.77,41H65.35a3.19,3.19,0,0,0,3.19-3.2h0a3.19,3.19,0,0,0-3.19-3.19H29.73c-.5-2.77-1-5.31-1.43-7.85-.86-4.7-1.67-9.35-4.91-13.25C18.74,8,12.23,7,5.73,6.15c-6.24-1-5.79,4.74-2.51,5.23,2.44.37,9.61,1.86,9.69,1.89,5.77,1.72,7.5,5,8.56,10.83q5.36,29.76,10.66,59.51C33.84,93.22,40.85,98.32,51.24,97a229.23,229.23,0,0,1,56.32,0c9.88,1.19,16.35-2.73,19.12-11.47,1.36-4.26,2.62-8.55,3.9-12.83q4.92-16.39,9.83-32.81C141.57,36,140.62,34.73,136.5,34.64Z"/></svg>