<?xml version="1.0" encoding="utf-8"?>
<!-- Generator: Adobe Illustrator 21.0.0, SVG Export Plug-In . SVG Version: 6.00 Build 0)  -->
<svg version="1.1" id="圖層_1" xmlns="http://www.w3.org/2000/svg" xmlns:xlink="http://www.w3.org/1999/xlink" x="0px" y="0px"
	 viewBox="0 0 425.2 425.2" style="enable-background:new 0 0 425.2 425.2;" xml:space="preserve">
<style type="text/css">
	.st0{fill:#070001;}
</style>
<path class="st0" d="M308.2,0H116.9C87.5,0,63.8,23.8,63.7,53.1v361.4c0,4.1,2.4,7.8,6.1,9.5c3.6,1.8,8,1.4,11.2-1.1l131.6-101.3
	L344.2,423c1.9,1.4,4.2,2.2,6.5,2.2c1.6,0,3.2-0.4,4.7-1.1c3.7-1.7,6-5.5,6.1-9.5V53.1C361.4,23.8,337.6,0,308.2,0
	C308.2,0,308.2,0,308.2,0z M340.1,392.9L219,299.8c-3.8-2.9-9.1-2.9-12.9,0L85,392.9V53.1c0-17.6,14.3-31.9,31.9-31.9h191.3
	c17.6,0,31.9,14.3,31.9,31.9V392.9z"/>
<path class="st0" d="M265.7,148.8h-42.5v-42.5c0-5.9-4.8-10.6-10.6-10.6s-10.6,4.8-10.6,10.6v42.5h-42.5c-5.9,0-10.6,4.8-10.6,10.6
	s4.8,10.6,10.6,10.6h42.5v42.5c0,5.9,4.8,10.6,10.6,10.6s10.6-4.8,10.6-10.6v-42.5h42.5c5.9,0,10.6-4.8,10.6-10.6
	S271.6,148.8,265.7,148.8z"/>
</svg>
