<svg xmlns="http://www.w3.org/2000/svg" viewBox="0 0 140 140"><defs><style>.a{fill:#040000;}</style></defs><path class="a" d="M70,59.1A29.55,29.55,0,1,0,40.47,29.55,29.59,29.59,0,0,0,70,59.1ZM70,7.63A21.92,21.92,0,1,1,48.1,29.55,21.95,21.95,0,0,1,70,7.63Z"/><path class="a" d="M127.15,111.35A39.71,39.71,0,0,0,87.48,71.68H52.56a39.71,39.71,0,0,0-39.67,39.67V136c0,.07,0,.13,0,.2a3.85,3.85,0,0,0,7.69,0s0,0,0-.06V111.35a32.06,32.06,0,0,1,32-32H87.48a32.06,32.06,0,0,1,32,32V135.9a2.44,2.44,0,0,0-.06.26,3.85,3.85,0,0,0,7.69,0s0,0,0,0h0Z"/></svg>