<svg xmlns="http://www.w3.org/2000/svg" viewBox="0 0 140 140"><defs><style>.a{fill:#040000;}</style></defs><path class="a" d="M138.48,54.84,71.61,17.14a2.92,2.92,0,0,0-3.41-.37L18.14,45.52,1.52,54.84A3,3,0,1,0,4.42,60l12.06-6.88v67.52a3,3,0,0,0,5.94,0V49.74L69.59,22.81l48,27.06v70.78a3,3,0,0,0,5.94,0V53.21L135.58,60a3,3,0,1,0,2.9-5.17Z"/><path class="a" d="M94.09,86.5H45.91a3,3,0,0,0,0,5.93H94.09a3,3,0,0,0,0-5.93Z"/><path class="a" d="M94.09,104.29H45.91a3,3,0,0,0,0,5.94H94.09a3,3,0,0,0,0-5.94Z"/></svg>