<svg xmlns="http://www.w3.org/2000/svg" viewBox="0 0 140 140"><defs><style>.a{fill:#040000;}</style></defs><path class="a" d="M138.42,29.14a3,3,0,0,0-3.08.1L98.91,52.48V32.61A12.08,12.08,0,0,0,86.85,20.54H12.07A12.09,12.09,0,0,0,0,32.61v74.78a12.09,12.09,0,0,0,12.07,12.07H86.85a12.08,12.08,0,0,0,12.06-12.07v-48A2.91,2.91,0,0,0,100,59l34-21.67V99.1l-11.67-8.16a3,3,0,0,0-3.48,5l16.44,11.5a3,3,0,0,0,3.14.21,3,3,0,0,0,1.63-2.69V31.8A3,3,0,0,0,138.42,29.14ZM92.85,107.39a6,6,0,0,1-6,6H12.07a6,6,0,0,1-6-6V32.61a6,6,0,0,1,6-6H86.85a6,6,0,0,1,6,6Z"/></svg>