<svg xmlns="http://www.w3.org/2000/svg" viewBox="0 0 140 140"><defs><style>.a{fill:#040000;}</style></defs><path class="a" d="M138.36,52.55,73.49,16.18a3.17,3.17,0,0,0-2.92-.1L1.84,52.45a3.2,3.2,0,0,0,.42,5.95L24.5,67.85V107.5a3.18,3.18,0,0,0,1.28,2.56c.28.22,19.38,14.17,44.41,14.17,12.58,0,26.66-3.52,40.61-14.07a3.22,3.22,0,0,0,1.27-2.48c.43-20,.24-35.09.24-35.24a3.42,3.42,0,0,0-.23-1.16l10.46-5.23v44.46a3.2,3.2,0,0,0,6.39,0V62.85l9.3-4.64a3.2,3.2,0,0,0,.13-5.66ZM124.73,57.8l-54.46-8a3.26,3.26,0,0,0-3.63,2.7,3.2,3.2,0,0,0,2.7,3.63l45.4,6.66L72.47,83.93,50.19,73.59a3.2,3.2,0,0,0-2.7,5.8l23.68,11a3.22,3.22,0,0,0,2.78,0l32-16c0,4.43.08,16.47-.23,31.62-34,24.65-67.76,4.59-74.81-.13V65.49a3.2,3.2,0,0,0-2.25-3L11,54.72,71.8,22.57,130,55.18Z"/></svg>